<?xml version="1.0" encoding="utf-8" ?>
<svg baseProfile="full" height="700px" version="1.1" width="800px" xmlns="http://www.w3.org/2000/svg" xmlns:ev="http://www.w3.org/2001/xml-events" xmlns:xlink="http://www.w3.org/1999/xlink"><defs /><polyline clip-path="url(#border_clip)" fill="none" points="390.5,380.50000000000006 375.5,380.50000000000006 360.5,380.50000000000006 360.5,365.50000000000006 345.5,365.50000000000006 345.5,350.50000000000006 360.5,350.50000000000006 375.5,350.50000000000006 390.5,350.50000000000006 405.5,350.5 405.5,365.5 420.5,365.5 420.5,380.5 405.5,380.5 390.5,380.50000000000006 375.5,380.50000000000006 360.5,380.50000000000006 360.5,365.50000000000006 345.5,365.5000000000001 345.5,350.5000000000001 360.5,350.50000000000006 375.5,350.50000000000006 375.5,365.50000000000006 375.5,380.50000000000006 360.5,380.50000000000006 360.50000000000006,395.50000000000006 345.50000000000006,395.5000000000001 345.5,380.5000000000001 345.5,365.5000000000001 330.5,365.5000000000001 315.5,365.5000000000001 315.5,350.5000000000001 300.5,350.50000000000017 300.5,335.50000000000017 315.5,335.5000000000001 330.5,335.5000000000001 330.5,350.5000000000001 330.5,365.5000000000001 315.5,365.5000000000001 315.50000000000006,380.5000000000001 300.50000000000006,380.50000000000017 300.5,365.50000000000017 300.5,350.50000000000017" stroke="black" stroke-linecap="round" stroke-width="1" /><polyline clip-path="url(#border_clip)" fill="none" points="300.5,350.50000000000017 315.5,350.5000000000001 330.5,350.5000000000001 330.5,365.5000000000001 345.5,365.5000000000001 345.50000000000006,380.5000000000001 330.50000000000006,380.5000000000001 315.50000000000006,380.5000000000001 300.50000000000006,380.50000000000017 285.50000000000006,380.5000000000002 285.5,365.5000000000002 270.5,365.5000000000002 270.5,350.5000000000002 285.5,350.50000000000017 300.5,350.50000000000017 300.5,365.50000000000017 300.50000000000006,380.50000000000017 285.50000000000006,380.5000000000002 285.5000000000001,395.5000000000002 270.5000000000001,395.5000000000002 270.50000000000006,380.5000000000002 270.5,365.5000000000002 270.5,350.5000000000002 270.5,335.5000000000002 285.5,335.50000000000017 285.49999999999994,320.50000000000017 300.49999999999994,320.50000000000017 300.5,335.50000000000017 300.5,350.50000000000017 285.5,350.50000000000017 270.5,350.5000000000002 270.5,335.5000000000002 255.49999999999997,335.5000000000003 255.49999999999994,320.5000000000003 270.49999999999994,320.5000000000002 285.49999999999994,320.50000000000017 285.4999999999999,305.50000000000017 285.4999999999999,290.50000000000017 300.4999999999999,290.50000000000017 300.49999999999983,275.50000000000017 315.49999999999983,275.5000000000001 315.4999999999999,290.5000000000001 315.4999999999999,305.5000000000001" stroke="black" stroke-linecap="round" stroke-width="1" /><polyline clip-path="url(#border_clip)" fill="none" points="315.4999999999999,305.5000000000001 300.4999999999999,305.50000000000017 285.4999999999999,305.50000000000017 285.4999999999999,290.50000000000017 270.4999999999999,290.5000000000002 270.49999999999983,275.5000000000002 285.49999999999983,275.50000000000017 300.49999999999983,275.5000000000001 300.4999999999999,290.5000000000001 300.4999999999999,305.5000000000001 285.4999999999999,305.50000000000017 285.49999999999994,320.50000000000017 270.49999999999994,320.5000000000002 270.4999999999999,305.5000000000002 270.49999999999983,290.5000000000002 270.4999999999998,275.5000000000002 270.4999999999997,260.5000000000002 285.4999999999997,260.50000000000017 285.49999999999966,245.50000000000017 300.49999999999966,245.50000000000014 300.4999999999997,260.5000000000001 300.4999999999998,275.5000000000001 315.4999999999998,275.5000000000001 330.4999999999998,275.50000000000006 330.4999999999998,290.50000000000006 345.4999999999998,290.5 345.49999999999983,305.5 330.49999999999983,305.50000000000006 315.49999999999983,305.5000000000001 300.49999999999983,305.5000000000001 285.49999999999983,305.50000000000017 285.4999999999998,290.50000000000017 270.4999999999998,290.5000000000002 270.4999999999998,275.5000000000002 285.4999999999998,275.50000000000017 300.4999999999998,275.5000000000001 300.4999999999998,290.5000000000001 300.49999999999983,305.5000000000001 285.49999999999983,305.50000000000017 285.4999999999999,320.50000000000017 270.4999999999999,320.5000000000002 270.49999999999983,305.5000000000002 270.4999999999998,290.5000000000002" stroke="black" stroke-linecap="round" stroke-width="1" /><polyline clip-path="url(#border_clip)" fill="none" points="270.4999999999998,290.5000000000002 255.49999999999977,290.5000000000003 240.49999999999977,290.50000000000034 240.49999999999972,275.50000000000034 225.49999999999972,275.5000000000004 225.49999999999966,260.5000000000004 240.49999999999966,260.50000000000034 255.49999999999966,260.5000000000003 255.49999999999972,275.5000000000003 255.49999999999977,290.5000000000003 240.49999999999977,290.50000000000034 240.49999999999983,305.50000000000034 225.49999999999983,305.50000000000034 225.49999999999977,290.50000000000034 225.49999999999972,275.50000000000034 240.49999999999972,275.50000000000034 255.49999999999972,275.5000000000002 255.49999999999977,290.5000000000002 270.4999999999998,290.5000000000002 270.49999999999983,305.5000000000002 255.49999999999983,305.5000000000002 240.49999999999983,305.50000000000034 225.49999999999983,305.50000000000034 210.49999999999983,305.50000000000045 210.49999999999977,290.50000000000045 195.49999999999977,290.50000000000045 195.49999999999972,275.50000000000045 210.49999999999972,275.50000000000045 225.49999999999972,275.50000000000034 225.49999999999977,290.50000000000034 225.49999999999983,305.50000000000034 210.49999999999983,305.50000000000045 210.4999999999999,320.50000000000045 195.4999999999999,320.5000000000005 195.49999999999983,305.5000000000005 195.49999999999977,290.5000000000005 195.49999999999972,275.5000000000005 195.49999999999966,260.5000000000005 210.49999999999966,260.50000000000045 210.4999999999996,245.50000000000045 225.4999999999996,245.5000000000004 225.49999999999966,260.5000000000004 225.49999999999972,275.5000000000004" stroke="black" stroke-linecap="round" stroke-width="1" /><polyline clip-path="url(#border_clip)" fill="none" points="225.49999999999972,275.5000000000004 210.49999999999972,275.50000000000045 195.49999999999972,275.5000000000005 195.49999999999966,260.5000000000005 180.49999999999966,260.50000000000057 180.4999999999996,245.5000000000006 195.4999999999996,245.5000000000005 210.4999999999996,245.50000000000045 210.49999999999955,230.50000000000045 210.4999999999995,215.50000000000045 225.4999999999995,215.5000000000004 225.49999999999943,200.5000000000004 240.49999999999943,200.50000000000034 240.4999999999995,215.50000000000034 240.49999999999955,230.50000000000034 225.49999999999955,230.5000000000004 210.49999999999955,230.50000000000048 210.4999999999995,215.50000000000048 195.4999999999995,215.50000000000054 195.49999999999943,200.50000000000054 210.49999999999943,200.50000000000048 225.49999999999943,200.50000000000043 225.4999999999995,215.50000000000043 225.49999999999955,230.50000000000043 210.49999999999955,230.5000000000005 210.4999999999996,245.5000000000005 195.4999999999996,245.50000000000057 195.49999999999952,230.50000000000057 195.49999999999943,215.50000000000057 195.49999999999935,200.50000000000057 195.49999999999926,185.50000000000057 210.49999999999926,185.50000000000048 210.49999999999918,170.50000000000048 225.49999999999918,170.5000000000004 225.49999999999926,185.5000000000004 225.49999999999935,200.5000000000004 210.49999999999935,200.50000000000048 195.49999999999935,200.50000000000057 195.49999999999926,185.50000000000057 180.49999999999926,185.50000000000065 180.49999999999918,170.50000000000065 195.49999999999918,170.50000000000057 210.49999999999918,170.50000000000048" stroke="black" stroke-linecap="round" stroke-width="1" /><polyline clip-path="url(#border_clip)" fill="none" points="210.49999999999918,170.50000000000048 225.49999999999918,170.5000000000004 240.49999999999918,170.5000000000003 240.49999999999926,185.5000000000003 255.49999999999926,185.50000000000023 255.49999999999935,200.50000000000023 240.49999999999935,200.5000000000003 225.49999999999935,200.5000000000004 225.49999999999926,185.5000000000004 225.49999999999918,170.5000000000004 240.49999999999918,170.5000000000003 240.4999999999991,155.5000000000003 255.4999999999991,155.50000000000023 255.49999999999918,170.50000000000023 255.49999999999926,185.50000000000023 270.49999999999926,185.50000000000014 285.49999999999926,185.50000000000006 285.4999999999993,200.50000000000006 300.4999999999993,200.49999999999997 300.49999999999943,215.49999999999997 285.49999999999943,215.50000000000006 270.49999999999943,215.50000000000014 270.4999999999993,200.50000000000014 270.49999999999926,185.50000000000014 285.49999999999926,185.50000000000006 285.4999999999992,170.50000000000006 300.4999999999992,170.49999999999997 300.49999999999926,185.49999999999997 300.4999999999993,200.49999999999997 285.4999999999993,200.50000000000006 270.4999999999993,200.50000000000014 270.49999999999926,185.50000000000014 255.49999999999926,185.50000000000023 255.49999999999918,170.50000000000023 270.4999999999992,170.50000000000014 285.4999999999992,170.50000000000006 300.4999999999992,170.49999999999997 315.4999999999992,170.4999999999999 315.49999999999926,185.4999999999999 330.49999999999926,185.4999999999998 330.4999999999993,200.4999999999998 315.4999999999993,200.4999999999999 300.4999999999993,200.49999999999997" stroke="black" stroke-linecap="round" stroke-width="1" /><polyline clip-path="url(#border_clip)" fill="none" points="300.4999999999993,200.49999999999997 285.4999999999993,200.50000000000006 270.4999999999993,200.50000000000014 270.49999999999926,185.50000000000014 255.49999999999926,185.50000000000023 255.49999999999918,170.50000000000023 270.4999999999992,170.50000000000014 285.4999999999992,170.50000000000006 300.4999999999992,170.49999999999997 315.4999999999992,170.4999999999999 315.49999999999926,185.4999999999999 330.49999999999926,185.4999999999998 330.4999999999994,200.4999999999998 315.4999999999994,200.4999999999999 300.4999999999994,200.49999999999997 300.49999999999926,185.49999999999997 300.4999999999992,170.49999999999997 315.4999999999992,170.4999999999999 315.4999999999991,155.4999999999999 330.4999999999991,155.4999999999998 330.4999999999992,170.4999999999998 330.49999999999926,185.4999999999998 345.49999999999926,185.49999999999972 360.49999999999926,185.49999999999963 360.4999999999994,200.49999999999963 375.4999999999994,200.49999999999955 375.4999999999995,215.49999999999955 360.4999999999995,215.49999999999963 345.4999999999995,215.49999999999972 345.4999999999994,200.49999999999972 345.49999999999926,185.49999999999972 360.49999999999926,185.49999999999963 360.4999999999992,170.49999999999963 375.4999999999992,170.49999999999955 375.49999999999926,185.49999999999955 375.4999999999994,200.49999999999955 360.4999999999994,200.49999999999966 345.4999999999994,200.49999999999977 345.49999999999926,185.49999999999977 330.49999999999926,185.4999999999999 330.4999999999992,170.4999999999999 345.4999999999992,170.49999999999977 360.4999999999992,170.49999999999966" stroke="black" stroke-linecap="round" stroke-width="1" /><polyline clip-path="url(#border_clip)" fill="none" points="360.4999999999992,170.49999999999966 375.4999999999992,170.49999999999955 390.4999999999992,170.49999999999943 390.49999999999926,185.49999999999943 405.49999999999926,185.49999999999932 405.4999999999994,200.49999999999932 390.4999999999994,200.49999999999943 375.4999999999994,200.49999999999955 375.49999999999926,185.49999999999955 375.49999999999915,170.49999999999955 390.49999999999915,170.49999999999943 390.4999999999991,155.49999999999943 405.4999999999991,155.49999999999932 405.49999999999915,170.49999999999932 405.49999999999926,185.49999999999932 405.4999999999994,200.49999999999932 405.4999999999995,215.49999999999932 390.4999999999995,215.49999999999943 390.4999999999996,230.49999999999943 375.4999999999996,230.49999999999955 375.4999999999995,215.49999999999955 375.4999999999994,200.49999999999955 390.4999999999994,200.49999999999943 405.4999999999994,200.49999999999932 405.4999999999995,215.49999999999932 420.4999999999995,215.4999999999992 420.4999999999996,230.4999999999992 405.4999999999996,230.49999999999932 390.4999999999996,230.49999999999943 390.4999999999997,245.49999999999943 390.49999999999983,260.49999999999943 375.49999999999983,260.49999999999955 375.49999999999994,275.49999999999955 360.49999999999994,275.49999999999966 360.49999999999983,260.49999999999966 360.4999999999997,245.49999999999966 375.4999999999997,245.49999999999955 390.4999999999997,245.49999999999943 390.49999999999983,260.49999999999943 405.49999999999983,260.4999999999993 405.49999999999994,275.4999999999993 390.49999999999994,275.49999999999943 375.49999999999994,275.49999999999955" stroke="black" stroke-linecap="round" stroke-width="1" /><polyline clip-path="url(#border_clip)" fill="none" points="375.49999999999994,275.49999999999955 375.49999999999983,260.49999999999955 375.4999999999997,245.49999999999955 390.4999999999997,245.49999999999943 390.4999999999996,230.49999999999943 405.4999999999996,230.49999999999932 405.4999999999997,245.49999999999932 405.49999999999983,260.4999999999993 405.49999999999994,275.4999999999993 405.50000000000006,290.4999999999993 390.50000000000006,290.49999999999943 390.50000000000017,305.49999999999943 375.50000000000017,305.49999999999955 375.50000000000006,290.49999999999955 375.49999999999994,275.49999999999955 375.49999999999983,260.49999999999955 375.4999999999997,245.49999999999955 390.4999999999997,245.49999999999943 390.49999999999955,230.49999999999943 405.49999999999955,230.49999999999932 405.4999999999997,245.49999999999932 405.49999999999983,260.4999999999993 405.49999999999994,275.4999999999993 405.50000000000006,290.4999999999993 390.50000000000006,290.49999999999943 390.50000000000017,305.49999999999943 375.50000000000017,305.49999999999955 375.50000000000006,290.49999999999955 375.49999999999994,275.49999999999955 390.49999999999994,275.49999999999943 405.49999999999994,275.4999999999993 405.50000000000006,290.4999999999993 420.50000000000006,290.49999999999915 420.50000000000017,305.49999999999915 405.50000000000017,305.4999999999993 390.50000000000017,305.49999999999943 390.50000000000034,320.49999999999943 390.50000000000045,335.49999999999943 375.50000000000045,335.49999999999955 375.50000000000057,350.49999999999955 360.50000000000057,350.49999999999966 360.50000000000045,335.49999999999966 360.50000000000034,320.49999999999966" stroke="black" stroke-linecap="round" stroke-width="1" /><polyline clip-path="url(#border_clip)" fill="none" points="360.50000000000034,320.49999999999966 375.50000000000034,320.49999999999955 390.50000000000034,320.49999999999943 390.50000000000045,335.49999999999943 405.50000000000045,335.49999999999926 405.50000000000057,350.49999999999926 390.50000000000057,350.49999999999943 375.50000000000057,350.49999999999955 375.50000000000045,335.49999999999955 375.5000000000003,320.49999999999955 390.5000000000003,320.49999999999943 390.50000000000017,305.49999999999943 405.50000000000017,305.49999999999926 405.5000000000003,320.49999999999926 405.50000000000045,335.49999999999926 405.50000000000057,350.49999999999926 405.5000000000007,365.49999999999926 390.5000000000007,365.49999999999943 390.50000000000085,380.49999999999943 375.50000000000085,380.49999999999955 375.5000000000007,365.49999999999955 375.50000000000057,350.49999999999955 390.50000000000057,350.49999999999943 405.50000000000057,350.49999999999926 405.50000000000074,365.49999999999926 420.5000000000007,365.49999999999915 420.50000000000085,380.49999999999915 405.50000000000085,380.49999999999926 390.50000000000085,380.49999999999943 375.50000000000085,380.49999999999955 360.50000000000085,380.4999999999997 360.5000000000007,365.4999999999997 345.5000000000007,365.49999999999983 345.50000000000057,350.49999999999983 360.50000000000057,350.4999999999997 375.50000000000057,350.49999999999955 375.5000000000007,365.49999999999955 375.50000000000085,380.49999999999955 360.50000000000085,380.4999999999997 360.500000000001,395.4999999999997 345.500000000001,395.49999999999983 345.50000000000085,380.49999999999983 345.5000000000007,365.49999999999983" stroke="black" stroke-linecap="round" stroke-width="1" /><polyline clip-path="url(#border_clip)" fill="none" points="345.5000000000007,365.49999999999983 330.5000000000007,365.5 315.5000000000007,365.5000000000001 315.50000000000057,350.5000000000001 300.50000000000057,350.5000000000003 300.50000000000045,335.5000000000003 315.50000000000045,335.5000000000001 330.50000000000045,335.5 330.50000000000057,350.5 330.5000000000007,365.5 315.5000000000007,365.5000000000001 315.50000000000085,380.5000000000001 300.50000000000085,380.5000000000003 300.5000000000007,365.5000000000003 300.50000000000057,350.5000000000003 315.50000000000057,350.5000000000001 330.50000000000057,350.5 330.5000000000007,365.5 345.5000000000007,365.49999999999983 345.50000000000085,380.49999999999983 330.50000000000085,380.5 315.50000000000085,380.5000000000001 300.50000000000085,380.5000000000003 285.50000000000085,380.50000000000045 285.5000000000007,365.50000000000045 270.5000000000007,365.50000000000057 270.50000000000057,350.50000000000057 285.50000000000057,350.50000000000045 300.50000000000057,350.5000000000003 300.5000000000004,335.5000000000003 300.5000000000002,320.5000000000003 315.5000000000002,320.5000000000001 315.50000000000006,305.5000000000001 330.50000000000006,305.5 330.5000000000002,320.5 330.5000000000004,335.5 330.50000000000057,350.5 330.5000000000007,365.5 315.5000000000007,365.5000000000001 315.50000000000085,380.5000000000001 300.50000000000085,380.5000000000003 300.5000000000007,365.5000000000003 300.50000000000057,350.5000000000003" stroke="black" stroke-linecap="round" stroke-width="1" /><polyline clip-path="url(#border_clip)" fill="none" points="300.50000000000057,350.5000000000003 315.50000000000057,350.5000000000001 330.50000000000057,350.5 330.5000000000007,365.5 345.5000000000007,365.49999999999983 345.50000000000085,380.49999999999983 330.50000000000085,380.5 315.50000000000085,380.5000000000001 315.500000000001,395.5000000000001 315.50000000000114,410.5000000000001 300.50000000000114,410.5000000000003 300.5000000000013,425.5000000000003 285.5000000000013,425.50000000000045 285.50000000000114,410.50000000000045 285.500000000001,395.50000000000045 300.500000000001,395.5000000000003 315.500000000001,395.5000000000001 315.50000000000114,410.5000000000001 330.50000000000114,410.5 330.5000000000013,425.5 315.5000000000013,425.5000000000001 300.5000000000013,425.5000000000003 300.50000000000114,410.5000000000003 300.500000000001,395.5000000000003 315.500000000001,395.5000000000001 315.50000000000085,380.5000000000001 330.50000000000085,380.49999999999994 330.500000000001,395.49999999999994 330.50000000000114,410.49999999999994 330.5000000000013,425.49999999999994 330.5000000000015,440.49999999999994 315.5000000000015,440.5000000000001 315.50000000000165,455.5000000000001 300.50000000000165,455.5000000000003 300.5000000000015,440.5000000000003 300.5000000000013,425.5000000000003 315.5000000000013,425.5000000000001 330.5000000000013,425.49999999999994 330.5000000000015,440.49999999999994 345.5000000000015,440.4999999999998 345.50000000000165,455.4999999999998 330.5000000000016,455.49999999999994 315.5000000000016,455.5000000000001" stroke="black" stroke-linecap="round" stroke-width="1" /><polyline clip-path="url(#border_clip)" fill="none" points="315.5000000000016,455.5000000000001 300.5000000000016,455.5000000000003 285.5000000000016,455.50000000000045 285.5000000000015,440.50000000000045 270.5000000000015,440.5000000000006 270.50000000000125,425.5000000000006 285.50000000000125,425.50000000000045 300.50000000000125,425.5000000000003 300.5000000000015,440.5000000000003 300.5000000000016,455.5000000000003 285.5000000000016,455.50000000000045 285.5000000000018,470.50000000000045 270.5000000000018,470.5000000000006 270.5000000000016,455.5000000000006 270.5000000000015,440.5000000000006 255.50000000000145,440.5000000000008 240.50000000000145,440.50000000000097 240.50000000000128,425.50000000000097 225.50000000000128,425.50000000000114 225.5000000000011,410.50000000000114 240.5000000000011,410.50000000000097 255.5000000000011,410.5000000000008 255.50000000000128,425.5000000000008 255.50000000000145,440.5000000000008 240.50000000000145,440.50000000000097 240.50000000000162,455.50000000000097 225.50000000000162,455.50000000000114 225.50000000000145,440.50000000000114 225.50000000000128,425.50000000000114 240.50000000000128,425.50000000000097 255.50000000000128,425.5000000000008 255.50000000000145,440.5000000000008 270.5000000000015,440.5000000000006 270.5000000000016,455.5000000000006 255.50000000000162,455.5000000000008 240.50000000000162,455.500000000001 225.50000000000162,455.5000000000012 210.50000000000162,455.50000000000136 210.50000000000145,440.50000000000136 195.50000000000145,440.5000000000016 195.50000000000128,425.5000000000016 210.50000000000128,425.50000000000136 225.50000000000128,425.5000000000012" stroke="black" stroke-linecap="round" stroke-width="1" /><polyline clip-path="url(#border_clip)" fill="none" points="225.50000000000128,425.5000000000012 225.50000000000145,440.5000000000012 225.50000000000162,455.5000000000012 210.50000000000162,455.50000000000136 210.5000000000018,470.50000000000136 195.5000000000018,470.5000000000016 195.50000000000162,455.5000000000016 195.50000000000145,440.5000000000016 195.50000000000128,425.5000000000016 195.5000000000011,410.5000000000016 210.5000000000011,410.50000000000136 210.50000000000094,395.50000000000136 225.50000000000094,395.5000000000012 225.5000000000011,410.5000000000012 225.50000000000128,425.5000000000012 210.50000000000128,425.50000000000136 195.50000000000128,425.5000000000016 195.50000000000108,410.5000000000016 180.50000000000108,410.50000000000176 180.50000000000088,395.50000000000176 195.50000000000088,395.5000000000016 210.50000000000088,395.50000000000136 210.50000000000068,380.50000000000136 210.50000000000048,365.50000000000136 225.50000000000048,365.5000000000012 225.50000000000028,350.5000000000012 240.50000000000028,350.500000000001 240.50000000000048,365.500000000001 240.50000000000068,380.500000000001 225.50000000000068,380.5000000000012 210.50000000000068,380.50000000000136 210.50000000000048,365.50000000000136 195.50000000000048,365.5000000000016 195.50000000000028,350.5000000000016 210.50000000000028,350.50000000000136 225.50000000000028,350.5000000000012 225.50000000000048,365.5000000000012 225.50000000000068,380.5000000000012 210.50000000000068,380.50000000000136 210.50000000000088,395.50000000000136 195.50000000000088,395.5000000000016 195.50000000000068,380.5000000000016 195.50000000000048,365.5000000000016" stroke="black" stroke-linecap="round" stroke-width="1" /><polyline clip-path="url(#border_clip)" fill="none" points="195.50000000000048,365.5000000000016 195.50000000000028,350.5000000000016 195.50000000000009,335.5000000000016 210.50000000000009,335.50000000000136 210.4999999999999,320.50000000000136 225.4999999999999,320.5000000000012 225.50000000000009,335.5000000000012 225.50000000000028,350.5000000000012 225.50000000000048,365.5000000000012 225.50000000000068,380.5000000000012 210.50000000000068,380.50000000000136 210.50000000000088,395.50000000000136 195.50000000000088,395.5000000000016 195.50000000000068,380.5000000000016 195.50000000000048,365.5000000000016 195.50000000000028,350.5000000000016 195.50000000000009,335.5000000000016 210.50000000000009,335.50000000000136 210.4999999999999,320.50000000000136 225.4999999999999,320.5000000000012 225.50000000000009,335.5000000000012 225.50000000000028,350.5000000000012 210.50000000000028,350.50000000000136 195.50000000000028,350.5000000000016 195.50000000000009,335.5000000000016 180.50000000000009,335.50000000000176 180.4999999999999,320.50000000000176 195.4999999999999,320.5000000000016 210.4999999999999,320.50000000000136 210.4999999999997,305.50000000000136 210.4999999999995,290.50000000000136 225.4999999999995,290.5000000000012 225.4999999999993,275.5000000000012 240.4999999999993,275.50000000000097 240.4999999999995,290.50000000000097 240.4999999999997,305.50000000000097 225.4999999999997,305.5000000000012 210.4999999999997,305.50000000000136 210.4999999999995,290.50000000000136 195.4999999999995,290.5000000000016 195.4999999999993,275.5000000000016 210.4999999999993,275.50000000000136 225.4999999999993,275.5000000000012" stroke="black" stroke-linecap="round" stroke-width="1" /><polyline clip-path="url(#border_clip)" fill="none" points="225.4999999999993,275.5000000000012 225.4999999999995,290.5000000000012 225.4999999999997,305.5000000000012 210.4999999999997,305.5000000000014 210.4999999999999,320.5000000000014 195.4999999999999,320.5000000000016 195.4999999999997,305.5000000000016 195.4999999999995,290.5000000000016 195.4999999999993,275.5000000000016 195.4999999999991,260.5000000000016 210.4999999999991,260.50000000000136 210.4999999999989,245.5000000000014 225.4999999999989,245.5000000000012 225.4999999999991,260.5000000000012 225.4999999999993,275.5000000000012 210.4999999999993,275.50000000000136 195.4999999999993,275.5000000000016 195.4999999999991,260.5000000000016 180.4999999999991,260.5000000000018 180.4999999999989,245.50000000000182 195.4999999999989,245.5000000000016 210.4999999999989,245.5000000000014 225.4999999999989,245.5000000000012 240.4999999999989,245.50000000000097 240.49999999999912,260.50000000000097 255.49999999999912,260.50000000000074 255.49999999999935,275.50000000000074 240.49999999999935,275.50000000000097 225.49999999999935,275.5000000000012 225.49999999999912,260.5000000000012 225.4999999999989,245.5000000000012 240.4999999999989,245.50000000000097 240.49999999999866,230.50000000000097 255.49999999999866,230.50000000000074 255.4999999999989,245.50000000000074 255.49999999999912,260.50000000000074 270.4999999999991,260.50000000000057 285.4999999999991,260.50000000000034 285.4999999999993,275.50000000000034 300.4999999999993,275.5000000000001 300.49999999999955,290.5000000000001 285.49999999999955,290.50000000000034 270.49999999999955,290.50000000000057" stroke="black" stroke-linecap="round" stroke-width="1" /><polyline clip-path="url(#border_clip)" fill="none" points="270.49999999999955,290.50000000000057 270.4999999999993,275.50000000000057 270.4999999999991,260.50000000000057 285.4999999999991,260.50000000000034 285.49999999999886,245.50000000000034 300.49999999999886,245.5000000000001 300.4999999999991,260.5000000000001 300.4999999999993,275.5000000000001 285.4999999999993,275.50000000000034 270.4999999999993,275.50000000000057 270.4999999999991,260.50000000000057 255.4999999999991,260.5000000000008 255.49999999999886,245.5000000000008 270.49999999999886,245.50000000000057 285.49999999999886,245.50000000000034 300.49999999999886,245.5000000000001 315.49999999999886,245.4999999999999 315.4999999999991,260.4999999999999 330.4999999999991,260.49999999999966 330.4999999999993,275.49999999999966 315.4999999999993,275.4999999999999 300.4999999999993,275.5000000000001 285.4999999999993,275.50000000000034 270.4999999999993,275.50000000000057 270.4999999999991,260.50000000000057 255.4999999999991,260.5000000000008 255.49999999999886,245.5000000000008 270.49999999999886,245.50000000000057 285.49999999999886,245.50000000000034 300.49999999999886,245.5000000000001 315.49999999999886,245.4999999999999 315.4999999999991,260.4999999999999 330.4999999999991,260.49999999999966 330.4999999999993,275.49999999999966 315.4999999999993,275.4999999999999 300.4999999999993,275.5000000000001 300.4999999999991,260.5000000000001 300.49999999999886,245.5000000000001 315.49999999999886,245.4999999999999 315.49999999999864,230.4999999999999 330.49999999999864,230.49999999999966 330.49999999999886,245.49999999999966 330.4999999999991,260.49999999999966" stroke="black" stroke-linecap="round" stroke-width="1" /><polyline clip-path="url(#border_clip)" fill="none" points="330.4999999999991,260.49999999999966 345.4999999999991,260.49999999999943 360.4999999999991,260.4999999999992 360.4999999999993,275.4999999999992 375.4999999999993,275.499999999999 375.49999999999955,290.499999999999 360.49999999999955,290.4999999999992 345.49999999999955,290.49999999999943 345.4999999999993,275.49999999999943 345.4999999999991,260.49999999999943 360.4999999999991,260.4999999999992 360.49999999999886,245.4999999999992 375.49999999999886,245.49999999999895 375.4999999999991,260.499999999999 375.4999999999993,275.499999999999 360.4999999999993,275.4999999999992 345.4999999999993,275.49999999999943 345.4999999999991,260.49999999999943 330.4999999999991,260.49999999999966 330.49999999999886,245.49999999999966 345.49999999999886,245.49999999999943 360.49999999999886,245.4999999999992 375.49999999999886,245.49999999999895 390.49999999999886,245.4999999999987 390.4999999999991,260.4999999999987 405.4999999999991,260.49999999999847 405.4999999999993,275.49999999999847 390.4999999999993,275.4999999999987 375.4999999999993,275.499999999999 375.4999999999991,260.499999999999 375.49999999999886,245.49999999999895 390.49999999999886,245.4999999999987 390.4999999999986,230.4999999999987 405.4999999999986,230.49999999999847 405.49999999999886,245.49999999999847 405.4999999999991,260.49999999999847 405.4999999999993,275.49999999999847 405.4999999999996,290.49999999999847 390.4999999999996,290.4999999999987 390.49999999999983,305.4999999999987 375.49999999999983,305.499999999999 375.4999999999996,290.499999999999 375.4999999999993,275.499999999999" stroke="black" stroke-linecap="round" stroke-width="1" /><polyline clip-path="url(#border_clip)" fill="none" points="375.4999999999993,275.499999999999 390.4999999999993,275.4999999999987 405.4999999999993,275.49999999999847 405.4999999999996,290.49999999999847 420.4999999999996,290.49999999999824 420.49999999999983,305.49999999999824 405.49999999999983,305.49999999999847 390.49999999999983,305.4999999999987 390.50000000000006,320.4999999999987 390.50000000000034,335.4999999999987 375.50000000000034,335.499999999999 375.50000000000057,350.499999999999 360.50000000000057,350.4999999999992 360.50000000000034,335.4999999999992 360.50000000000006,320.4999999999992 375.50000000000006,320.499999999999 390.50000000000006,320.4999999999987 390.50000000000034,335.4999999999987 405.50000000000034,335.49999999999847 405.50000000000057,350.49999999999847 390.50000000000057,350.4999999999987 375.50000000000057,350.499999999999 375.50000000000034,335.499999999999 375.50000000000006,320.499999999999 390.50000000000006,320.4999999999987 390.49999999999983,305.4999999999987 405.49999999999983,305.49999999999847 405.50000000000006,320.49999999999847 405.50000000000034,335.49999999999847 405.50000000000057,350.49999999999847 405.50000000000085,365.49999999999847 390.50000000000085,365.4999999999987 390.5000000000011,380.4999999999987 375.5000000000011,380.499999999999 375.50000000000085,365.499999999999 375.50000000000057,350.499999999999 360.50000000000057,350.4999999999992 345.50000000000057,350.4999999999995 345.50000000000034,335.4999999999995 330.50000000000034,335.4999999999997 330.50000000000006,320.4999999999997 345.50000000000006,320.4999999999995 360.50000000000006,320.4999999999992" stroke="black" stroke-linecap="round" stroke-width="1" /><polyline clip-path="url(#border_clip)" fill="none" points="360.50000000000006,320.4999999999992 375.50000000000006,320.499999999999 390.50000000000006,320.4999999999987 390.50000000000034,335.4999999999987 405.50000000000034,335.49999999999847 405.50000000000057,350.49999999999847 390.50000000000057,350.4999999999987 375.50000000000057,350.499999999999 375.50000000000034,335.499999999999 375.50000000000006,320.499999999999 390.50000000000006,320.4999999999987 390.4999999999998,305.49999999999875 405.4999999999998,305.49999999999847 405.50000000000006,320.49999999999847 405.50000000000034,335.49999999999847 420.50000000000034,335.4999999999982 435.50000000000034,335.49999999999795 435.50000000000057,350.49999999999795 450.50000000000057,350.49999999999767 450.50000000000085,365.49999999999767 435.50000000000085,365.49999999999795 420.50000000000085,365.4999999999982 420.50000000000057,350.4999999999982 420.50000000000034,335.4999999999982 435.50000000000034,335.49999999999795 435.50000000000006,320.49999999999795 450.50000000000006,320.49999999999767 450.50000000000034,335.49999999999767 450.50000000000057,350.49999999999767 435.50000000000057,350.49999999999795 420.50000000000057,350.4999999999982 420.50000000000034,335.4999999999982 405.50000000000034,335.49999999999847 405.50000000000006,320.49999999999847 420.50000000000006,320.4999999999982 435.50000000000006,320.49999999999795 450.50000000000006,320.49999999999767 465.50000000000006,320.4999999999974 465.50000000000034,335.4999999999974 480.50000000000034,335.49999999999716 480.50000000000057,350.49999999999716 465.50000000000057,350.4999999999974 450.50000000000057,350.49999999999767" stroke="black" stroke-linecap="round" stroke-width="1" /><polyline clip-path="url(#border_clip)" fill="none" points="450.50000000000057,350.49999999999767 450.50000000000034,335.49999999999767 450.50000000000006,320.49999999999767 465.50000000000006,320.4999999999974 465.4999999999998,305.4999999999974 480.4999999999998,305.49999999999716 480.50000000000006,320.49999999999716 480.50000000000034,335.49999999999716 480.50000000000057,350.49999999999716 480.50000000000085,365.49999999999716 465.50000000000085,365.4999999999974 465.50000000000114,380.4999999999974 450.50000000000114,380.49999999999767 450.50000000000085,365.49999999999767 450.50000000000057,350.49999999999767 465.50000000000057,350.4999999999974 480.50000000000057,350.4999999999971 480.50000000000085,365.4999999999971 495.50000000000085,365.4999999999969 495.50000000000114,380.4999999999969 480.50000000000114,380.49999999999716 465.50000000000114,380.4999999999974 465.50000000000136,395.4999999999974 465.50000000000165,410.4999999999974 450.50000000000165,410.49999999999767 450.50000000000193,425.49999999999767 435.50000000000193,425.49999999999795 435.50000000000165,410.49999999999795 435.50000000000136,395.49999999999795 450.50000000000136,395.49999999999767 465.50000000000136,395.4999999999974 465.5000000000017,410.4999999999974 480.5000000000017,410.49999999999716 480.50000000000193,425.49999999999716 465.50000000000193,425.4999999999974 450.50000000000193,425.4999999999977 450.5000000000017,410.4999999999977 450.50000000000136,395.4999999999977 465.50000000000136,395.4999999999974 465.50000000000114,380.4999999999974 480.50000000000114,380.49999999999716 480.50000000000136,395.49999999999716 480.5000000000017,410.49999999999716" stroke="black" stroke-linecap="round" stroke-width="1" /><polyline clip-path="url(#border_clip)" fill="none" points="480.5000000000017,410.49999999999716 480.50000000000193,425.49999999999716 480.5000000000023,440.49999999999716 465.5000000000023,440.4999999999974 465.5000000000025,455.4999999999974 450.5000000000025,455.4999999999977 450.5000000000023,440.4999999999977 450.50000000000193,425.4999999999977 465.50000000000193,425.4999999999974 480.50000000000193,425.49999999999716 480.5000000000023,440.49999999999716 495.5000000000023,440.4999999999968 495.5000000000025,455.4999999999968 480.5000000000025,455.49999999999716 465.5000000000025,455.4999999999974 450.5000000000025,455.4999999999977 435.5000000000025,455.49999999999795 435.5000000000022,440.49999999999795 420.5000000000022,440.4999999999983 420.50000000000193,425.4999999999983 435.50000000000193,425.49999999999795 450.50000000000193,425.4999999999977 450.5000000000022,440.4999999999977 450.5000000000025,455.4999999999977 435.5000000000025,455.499999999998 435.50000000000284,470.499999999998 420.50000000000284,470.4999999999983 420.5000000000025,455.4999999999983 420.5000000000022,440.4999999999983 405.5000000000022,440.4999999999986 390.5000000000022,440.49999999999886 390.50000000000193,425.49999999999886 375.50000000000193,425.4999999999992 375.50000000000165,410.4999999999992 390.50000000000165,410.4999999999989 405.50000000000165,410.49999999999864 405.50000000000193,425.49999999999864 405.5000000000023,440.49999999999864 390.5000000000023,440.4999999999989 390.50000000000256,455.4999999999989 375.50000000000256,455.4999999999992 375.5000000000022,440.4999999999992 375.50000000000193,425.4999999999992" stroke="black" stroke-linecap="round" stroke-width="1" /><polyline clip-path="url(#border_clip)" fill="none" points="375.50000000000193,425.4999999999992 390.50000000000193,425.4999999999989 405.50000000000193,425.49999999999864 405.5000000000022,440.49999999999864 420.5000000000022,440.4999999999983 420.50000000000256,455.4999999999983 405.50000000000256,455.49999999999864 390.50000000000256,455.4999999999989 375.50000000000256,455.4999999999992 360.50000000000256,455.4999999999995 360.5000000000023,440.4999999999995 345.5000000000023,440.4999999999998 345.50000000000193,425.4999999999998 360.50000000000193,425.4999999999995 375.50000000000193,425.4999999999992 390.50000000000193,425.4999999999989 405.50000000000193,425.49999999999864 405.5000000000023,440.49999999999864 420.5000000000023,440.4999999999983 420.50000000000256,455.4999999999983 405.50000000000256,455.49999999999864 390.50000000000256,455.4999999999989 375.50000000000256,455.4999999999992 360.50000000000256,455.4999999999995 360.5000000000023,440.4999999999995 345.5000000000023,440.4999999999998 345.50000000000193,425.4999999999998 360.50000000000193,425.4999999999995 375.50000000000193,425.4999999999992 375.5000000000023,440.4999999999992 375.50000000000256,455.4999999999992 360.50000000000256,455.49999999999955 360.50000000000284,470.49999999999955 345.50000000000284,470.49999999999983 345.50000000000256,455.49999999999983 345.5000000000023,440.49999999999983 330.5000000000023,440.5000000000001 315.5000000000023,440.50000000000045 315.50000000000193,425.50000000000045 300.50000000000193,425.5000000000008 300.5000000000016,410.5000000000008 315.5000000000016,410.50000000000045 330.5000000000016,410.50000000000017" stroke="black" stroke-linecap="round" stroke-width="1" /><polyline clip-path="url(#border_clip)" fill="none" points="330.5000000000016,410.50000000000017 330.50000000000193,425.50000000000017 330.5000000000023,440.50000000000017 315.5000000000023,440.50000000000045 315.50000000000256,455.50000000000045 300.50000000000256,455.5000000000008 300.5000000000023,440.5000000000008 300.50000000000193,425.5000000000008 315.50000000000193,425.50000000000045 330.50000000000193,425.50000000000017 330.5000000000023,440.50000000000017 345.5000000000023,440.49999999999983 345.50000000000256,455.49999999999983 330.50000000000256,455.50000000000017 315.50000000000256,455.50000000000045 300.50000000000256,455.5000000000008 285.50000000000256,455.5000000000011 285.5000000000023,440.5000000000011 270.5000000000023,440.5000000000014 270.50000000000193,425.5000000000014 285.50000000000193,425.5000000000011 300.50000000000193,425.5000000000008 300.5000000000023,440.5000000000008 300.50000000000256,455.5000000000008 285.50000000000256,455.5000000000011 285.50000000000284,470.5000000000011 270.50000000000284,470.5000000000014 270.50000000000256,455.5000000000014 270.5000000000023,440.5000000000014 270.50000000000193,425.5000000000014 270.5000000000016,410.5000000000014 285.5000000000016,410.5000000000011 285.5000000000013,395.5000000000011 300.5000000000013,395.5000000000008 300.50000000000165,410.5000000000008 300.50000000000193,425.5000000000008 285.50000000000193,425.5000000000011 270.50000000000193,425.5000000000014 270.50000000000165,410.5000000000014 255.50000000000165,410.50000000000176 255.50000000000134,395.50000000000176 270.50000000000136,395.5000000000014 285.50000000000136,395.5000000000011" stroke="black" stroke-linecap="round" stroke-width="1" /><polyline clip-path="url(#border_clip)" fill="none" points="285.50000000000136,395.5000000000011 285.500000000001,380.5000000000011 285.5000000000007,365.5000000000011 300.5000000000007,365.50000000000074 300.50000000000034,350.50000000000074 315.50000000000034,350.50000000000045 315.5000000000007,365.50000000000045 315.500000000001,380.50000000000045 300.500000000001,380.5000000000008 285.500000000001,380.5000000000011 285.5000000000007,365.5000000000011 270.5000000000007,365.5000000000014 270.50000000000034,350.5000000000014 285.50000000000034,350.5000000000011 300.50000000000034,350.50000000000074 300.5000000000007,365.50000000000074 300.500000000001,380.5000000000008 285.500000000001,380.5000000000011 285.50000000000136,395.5000000000011 270.50000000000136,395.5000000000014 270.500000000001,380.5000000000014 270.5000000000007,365.5000000000014 270.50000000000034,350.5000000000014 270.5,335.5000000000014 285.5,335.5000000000011 285.49999999999966,320.5000000000011 300.49999999999966,320.50000000000074 300.5,335.50000000000074 300.50000000000034,350.50000000000074 300.5000000000007,365.50000000000074 300.50000000000097,380.50000000000074 285.50000000000097,380.5000000000011 285.5000000000013,395.5000000000011 270.5000000000013,395.5000000000014 270.50000000000097,380.5000000000014 270.5000000000006,365.5000000000014 270.5000000000003,350.5000000000014 270.49999999999994,335.5000000000014 285.49999999999994,335.5000000000011 285.4999999999996,320.5000000000011 300.4999999999996,320.50000000000074 300.49999999999994,335.50000000000074 300.5000000000003,350.50000000000074" stroke="black" stroke-linecap="round" stroke-width="1" /><polyline clip-path="url(#border_clip)" fill="none" points="300.5000000000003,350.50000000000074 285.5000000000003,350.5000000000011 270.5000000000003,350.5000000000014 270.49999999999994,335.5000000000014 255.49999999999994,335.50000000000176 255.4999999999996,320.50000000000176 270.4999999999996,320.5000000000014 285.4999999999996,320.5000000000011 285.49999999999926,305.5000000000011 285.4999999999989,290.5000000000011 300.4999999999989,290.50000000000074 300.4999999999986,275.50000000000074 315.4999999999986,275.5000000000004 315.4999999999989,290.5000000000004 315.49999999999926,305.5000000000004 300.49999999999926,305.50000000000074 285.49999999999926,305.5000000000011 285.4999999999989,290.5000000000011 270.4999999999989,290.5000000000014 270.4999999999986,275.5000000000014 285.4999999999986,275.5000000000011 300.4999999999986,275.50000000000074 300.4999999999989,290.50000000000074 300.49999999999926,305.50000000000074 285.49999999999926,305.5000000000011 285.4999999999996,320.5000000000011 270.4999999999996,320.5000000000014 270.49999999999926,305.5000000000014 270.4999999999989,290.5000000000014 270.4999999999986,275.5000000000014 270.49999999999824,260.5000000000014 285.49999999999824,260.5000000000011 285.4999999999979,245.50000000000108 300.4999999999979,245.50000000000074 300.49999999999824,260.50000000000074 300.4999999999986,275.50000000000074 285.4999999999986,275.5000000000011 270.4999999999986,275.5000000000014 270.49999999999824,260.5000000000014 255.49999999999824,260.50000000000176 255.4999999999979,245.50000000000176 270.4999999999979,245.50000000000142 285.4999999999979,245.50000000000108" stroke="black" stroke-linecap="round" stroke-width="1" /><polyline clip-path="url(#border_clip)" fill="none" points="285.4999999999979,245.50000000000108 300.4999999999979,245.5000000000007 315.4999999999979,245.50000000000034 315.49999999999824,260.50000000000034 330.49999999999824,260.5 330.49999999999864,275.5 315.49999999999864,275.50000000000034 300.49999999999864,275.5000000000007 300.49999999999824,260.5000000000007 300.4999999999979,245.5000000000007 315.4999999999979,245.50000000000034 315.49999999999756,230.50000000000034 330.49999999999756,230.5 330.4999999999979,245.5 330.49999999999824,260.5 345.49999999999824,260.49999999999966 360.49999999999824,260.4999999999993 360.49999999999864,275.4999999999993 375.49999999999864,275.4999999999989 375.499999999999,290.4999999999989 360.499999999999,290.4999999999993 345.499999999999,290.49999999999966 345.49999999999864,275.49999999999966 345.49999999999824,260.49999999999966 360.49999999999824,260.4999999999993 360.4999999999979,245.4999999999993 375.4999999999979,245.49999999999892 375.49999999999824,260.4999999999989 375.49999999999864,275.4999999999989 360.49999999999864,275.4999999999993 345.49999999999864,275.49999999999966 345.49999999999824,260.49999999999966 330.49999999999824,260.5 330.4999999999979,245.5 345.4999999999979,245.49999999999966 360.4999999999979,245.4999999999993 375.4999999999979,245.49999999999892 390.4999999999979,245.49999999999858 390.49999999999824,260.4999999999986 405.49999999999824,260.49999999999824 405.49999999999864,275.49999999999824 390.49999999999864,275.4999999999986 375.49999999999864,275.4999999999989" stroke="black" stroke-linecap="round" stroke-width="1" /><polyline clip-path="url(#border_clip)" fill="none" points="375.49999999999864,275.4999999999989 375.499999999999,290.4999999999989 375.4999999999993,305.4999999999989 360.4999999999993,305.4999999999993 360.4999999999997,320.4999999999993 345.4999999999997,320.49999999999966 345.4999999999993,305.49999999999966 345.499999999999,290.49999999999966 345.49999999999864,275.49999999999966 345.49999999999824,260.49999999999966 360.49999999999824,260.4999999999993 360.4999999999979,245.4999999999993 375.4999999999979,245.49999999999892 375.49999999999824,260.4999999999989 375.49999999999864,275.4999999999989 360.49999999999864,275.4999999999993 345.49999999999864,275.49999999999966 345.49999999999824,260.49999999999966 330.4999999999983,260.5 330.4999999999979,245.50000000000003 345.4999999999979,245.49999999999966 360.4999999999979,245.4999999999993 360.4999999999975,230.4999999999993 360.49999999999716,215.4999999999993 375.49999999999716,215.49999999999892 375.4999999999968,200.49999999999892 390.4999999999968,200.49999999999855 390.49999999999716,215.49999999999855 390.4999999999975,230.49999999999855 375.4999999999975,230.49999999999892 360.4999999999975,230.4999999999993 360.49999999999716,215.4999999999993 345.49999999999716,215.49999999999966 345.4999999999968,200.49999999999966 360.4999999999968,200.4999999999993 375.4999999999968,200.49999999999892 375.49999999999716,215.49999999999892 375.49999999999756,230.49999999999892 360.49999999999756,230.4999999999993 360.4999999999979,245.4999999999993 345.4999999999979,245.49999999999966 345.4999999999975,230.49999999999966 345.49999999999716,215.49999999999966" stroke="black" stroke-linecap="round" stroke-width="1" /><polyline clip-path="url(#border_clip)" fill="none" points="345.49999999999716,215.49999999999966 345.49999999999676,200.49999999999966 345.4999999999964,185.49999999999966 360.4999999999964,185.4999999999993 360.499999999996,170.4999999999993 375.499999999996,170.49999999999892 375.4999999999964,185.49999999999892 375.49999999999676,200.49999999999892 360.49999999999676,200.4999999999993 345.49999999999676,200.49999999999966 345.4999999999964,185.49999999999966 330.49999999999636,185.50000000000003 330.499999999996,170.50000000000003 345.499999999996,170.49999999999966 360.499999999996,170.4999999999993 375.499999999996,170.49999999999892 390.499999999996,170.49999999999855 390.49999999999636,185.49999999999855 405.49999999999636,185.49999999999818 405.49999999999676,200.49999999999818 390.49999999999676,200.49999999999855 375.49999999999676,200.49999999999892 375.49999999999636,185.49999999999892 375.499999999996,170.49999999999892 390.499999999996,170.49999999999855 390.4999999999956,155.49999999999855 405.4999999999956,155.49999999999818 405.499999999996,170.49999999999818 405.49999999999636,185.49999999999818 420.49999999999636,185.4999999999978 435.49999999999636,185.49999999999744 435.49999999999676,200.49999999999744 450.49999999999676,200.49999999999707 450.49999999999716,215.49999999999707 435.49999999999716,215.49999999999747 420.49999999999716,215.49999999999787 420.49999999999676,200.49999999999787 420.49999999999636,185.49999999999787 435.49999999999636,185.49999999999747 435.499999999996,170.49999999999747 450.499999999996,170.49999999999707 450.49999999999636,185.49999999999707 450.49999999999676,200.49999999999707" stroke="black" stroke-linecap="round" stroke-width="1" /><polyline clip-path="url(#border_clip)" fill="none" points="450.49999999999676,200.49999999999707 435.49999999999676,200.49999999999747 420.49999999999676,200.49999999999787 420.49999999999636,185.49999999999787 405.49999999999636,185.49999999999827 405.499999999996,170.49999999999827 420.499999999996,170.49999999999787 435.499999999996,170.49999999999747 450.499999999996,170.49999999999707 465.499999999996,170.49999999999667 465.49999999999636,185.49999999999667 480.49999999999636,185.49999999999628 480.49999999999676,200.49999999999628 465.49999999999676,200.49999999999667 450.49999999999676,200.49999999999707 450.49999999999636,185.49999999999707 450.49999999999596,170.49999999999707 465.49999999999596,170.49999999999667 465.49999999999557,155.49999999999667 480.49999999999557,155.49999999999628 480.49999999999596,170.49999999999628 480.49999999999636,185.49999999999628 480.49999999999676,200.49999999999628 480.49999999999716,215.49999999999628 465.49999999999716,215.49999999999667 465.49999999999756,230.49999999999667 450.49999999999756,230.49999999999707 450.49999999999716,215.49999999999707 450.49999999999676,200.49999999999707 465.49999999999676,200.49999999999667 480.49999999999676,200.49999999999628 480.49999999999716,215.49999999999628 495.49999999999716,215.49999999999588 495.49999999999756,230.49999999999588 480.49999999999756,230.49999999999628 465.49999999999756,230.49999999999667 465.49999999999795,245.49999999999667 465.49999999999835,260.4999999999967 450.49999999999835,260.49999999999704 450.49999999999875,275.49999999999704 435.49999999999875,275.4999999999975 435.49999999999835,260.4999999999975 435.49999999999795,245.49999999999747" stroke="black" stroke-linecap="round" stroke-width="1" /><polyline clip-path="url(#border_clip)" fill="none" points="435.49999999999795,245.49999999999747 450.49999999999795,245.49999999999707 465.49999999999795,245.49999999999667 465.49999999999835,260.4999999999967 480.49999999999835,260.49999999999625 480.49999999999875,275.49999999999625 465.49999999999875,275.4999999999967 450.49999999999875,275.49999999999704 450.49999999999835,260.49999999999704 450.49999999999795,245.49999999999707 465.49999999999795,245.49999999999667 465.49999999999756,230.49999999999667 480.49999999999756,230.49999999999628 480.49999999999795,245.49999999999628 480.4999999999984,260.49999999999625 480.4999999999988,275.49999999999625 480.4999999999992,290.49999999999625 465.4999999999992,290.4999999999967 465.4999999999996,305.4999999999967 450.4999999999996,305.4999999999971 450.4999999999992,290.4999999999971 450.4999999999988,275.4999999999971 450.4999999999984,260.4999999999971 450.499999999998,245.4999999999971 465.499999999998,245.49999999999667 465.4999999999976,230.49999999999667 480.4999999999976,230.49999999999625 480.499999999998,245.49999999999625 480.4999999999984,260.49999999999625 480.4999999999988,275.49999999999625 480.4999999999992,290.49999999999625 465.4999999999992,290.4999999999967 465.49999999999966,305.4999999999967 450.49999999999966,305.4999999999971 450.4999999999992,290.4999999999971 450.4999999999988,275.4999999999971 465.4999999999988,275.4999999999967 480.4999999999988,275.49999999999625 480.4999999999992,290.49999999999625 495.4999999999992,290.49999999999585 495.49999999999966,305.49999999999585 480.49999999999966,305.49999999999625 465.49999999999966,305.4999999999967" stroke="black" stroke-linecap="round" stroke-width="1" /><polyline clip-path="url(#border_clip)" fill="none" points="465.49999999999966,305.4999999999967 465.50000000000006,320.4999999999967 465.50000000000045,335.4999999999967 450.50000000000045,335.4999999999971 450.5000000000009,350.4999999999971 435.5000000000009,350.4999999999975 435.50000000000045,335.4999999999975 435.50000000000006,320.4999999999975 450.50000000000006,320.4999999999971 465.50000000000006,320.49999999999665 465.50000000000045,335.49999999999665 480.50000000000045,335.49999999999625 480.5000000000009,350.49999999999625 465.5000000000009,350.49999999999665 450.5000000000009,350.4999999999971 450.50000000000045,335.4999999999971 450.50000000000006,320.4999999999971 465.50000000000006,320.49999999999665 465.49999999999966,305.49999999999665 480.49999999999966,305.49999999999625 480.50000000000006,320.49999999999625 480.50000000000045,335.49999999999625 480.5000000000009,350.49999999999625 480.50000000000136,365.49999999999625 465.50000000000136,365.49999999999665 465.50000000000176,380.49999999999665 450.50000000000176,380.4999999999971 450.50000000000136,365.4999999999971 450.5000000000009,350.4999999999971" stroke="black" stroke-linecap="round" stroke-width="1" /><polyline clip-path="url(#border_clip)" fill="none" points="450.5,350.5 465.5,350.5 480.5,350.5 480.5,365.5 495.5,365.5 495.5,380.5 480.5,380.5 465.5,380.5 450.5,380.5 435.5,380.5 435.5,365.5 420.5,365.5 420.5,350.5 435.5,350.5 450.5,350.5 450.5,365.5 450.5,380.5 435.5,380.5 435.5,395.5 420.5,395.5 420.5,380.5 420.5,365.5 405.5,365.5 390.5,365.50000000000006 390.5,350.50000000000006 375.5,350.50000000000006 375.5,335.50000000000006 390.5,335.50000000000006 405.5,335.5 405.5,350.5 405.5,365.5 390.5,365.50000000000006 390.5,380.50000000000006 375.5,380.50000000000006 375.5,365.50000000000006 375.5,350.50000000000006 390.5,350.50000000000006 405.5,350.5 405.5,365.5 420.5,365.5 420.5,380.5 405.5,380.5 390.5,380.50000000000006" stroke="black" stroke-linecap="round" stroke-width="1" /></svg>